# xmcd CD database file
#
# Track frame offsets:
#	150
#	30293
#	35030
#	59575
#	83005
#	105618
#	137083
#	154238
#	182585
#	199633
#	213920
#	251800
#	279593
#
# Disc length: 4248 seconds
#
# Revision: 1
# Processed by: cddbd v1.5.2PL0 Copyright (c) Steve Scherf et al.
# Submitted via: CDex 1.51
#
DISCID=b410960d
DTITLE=Tranquil Moods - Respiro
DYEAR=1994
DGENRE=New Age
TTITLE0=Yanni-looking Glass
TTITLE1=Ancient Future-Prelude
TTITLE2=Ancient Future-Bookenka
TTITLE3=Michael Gettel-Windows and walls
TTITLE4=Suzanne Ciani-Life in the moonlight
TTITLE5=Svensson-Syracus
TTITLE6=Blue chip orchestra-Bolero umbra
TTITLE7=Ralf illenberger-Dark glow
TTITLE8=Gary Lamb-the way you walk to my door
TTITLE9=Spencer brewer-Blue valentine
TTITLE10=Ravi-Carry me
TTITLE11=Scopece-Flight
TTITLE12=Aeoliah-Heart flame
EXTD=YEAR: 1994
EXTT0=
EXTT1=
EXTT2=
EXTT3=
EXTT4=
EXTT5=
EXTT6=
EXTT7=
EXTT8=
EXTT9=
EXTT10=
EXTT11=
EXTT12=
PLAYORDER=
